<?xml version="1.0" encoding="UTF-8"?>
<svg width="29px" height="40px" viewBox="0 0 29 40" version="1.1" xmlns="http://www.w3.org/2000/svg" xmlns:xlink="http://www.w3.org/1999/xlink">
    <!-- Generator: Sketch 62 (91390) - https://sketch.com -->
    <title>C</title>
    <desc>Created with Sketch.</desc>
    <defs>
        <linearGradient x1="50%" y1="0%" x2="50%" y2="100%" id="linearGradient-1">
            <stop stop-color="#B600FF" offset="0%"></stop>
            <stop stop-color="#8000FF" offset="100%"></stop>
        </linearGradient>
    </defs>
    <g id="Symbols" stroke="none" stroke-width="1" fill="none" fill-rule="evenodd">
        <path d="M20.0362108,40 C22.7538453,40 25.4181929,39.469496 27.9226796,38.4615385 C30.0541576,37.6127321 28.7219839,34.3236074 26.5372189,35.2254642 C24.4590278,36.0212202 22.3275497,36.4986737 20.0362108,36.4986737 C9.11238583,36.4986737 3.51725596,28.3819629 3.46396901,20.0530504 C3.46396901,10.7161804 10.2846988,3.50132626 19.87635,3.50132626 C22.1676889,3.50132626 24.4057408,3.92572944 26.5372189,4.82758621 C28.7219839,5.67639257 30.0541576,2.4403183 27.9226796,1.53846154 C25.4181929,0.530503979 22.7538453,0 20.0362108,0 C6.60789913,0 -0.0529697703,10.0795756 0.000317180903,20.1591512 C0.0536041321,30.0795756 6.76775998,40 20.0362108,40 Z M19.5860103,32.9966316 C22.1032124,33.0506504 24.6751363,32.4564436 27.028173,31.1059738 C29.1623226,29.971579 27.4112255,26.8925077 25.3317977,27.9728836 C23.471257,28.9992407 21.446551,29.4313911 19.5312886,29.3773723 C14.8252151,29.2153159 10.6116378,25.9741882 10.6116378,20.0321207 C10.6116378,11.6051886 18.9840707,8.52611721 25.3317977,11.9833201 C27.4112255,13.1717336 29.1623226,9.98462469 27.028173,8.90424878 C18.163244,3.98853839 7,8.90424878 7,20.0321207 C7,28.0269024 12.9099527,32.888594 19.5860103,32.9966316 Z" id="C" fill="url(#linearGradient-1)" fill-rule="nonzero"></path>
    </g>
</svg>