<?xml version="1.0" encoding="UTF-8"?>
<svg width="72px" height="72px" viewBox="0 0 72 72" version="1.1" xmlns="http://www.w3.org/2000/svg" xmlns:xlink="http://www.w3.org/1999/xlink">
    <!-- Generator: Sketch 61.2 (89653) - https://sketch.com -->
    <title>logo framed</title>
    <desc>Created with Sketch.</desc>
    <defs>
        <linearGradient x1="50%" y1="0%" x2="50%" y2="100%" id="linearGradient-1">
            <stop stop-color="#FFFFFF" stop-opacity="0.5" offset="0%"></stop>
            <stop stop-color="#FFFFFF" stop-opacity="0" offset="100%"></stop>
        </linearGradient>
        <rect id="path-2" x="0" y="0" width="60" height="60" rx="14"></rect>
        <filter x="-18.3%" y="-11.7%" width="136.7%" height="136.7%" filterUnits="objectBoundingBox" id="filter-3">
            <feOffset dx="0" dy="4" in="SourceAlpha" result="shadowOffsetOuter1"></feOffset>
            <feGaussianBlur stdDeviation="3" in="shadowOffsetOuter1" result="shadowBlurOuter1"></feGaussianBlur>
            <feColorMatrix values="0 0 0 0 0   0 0 0 0 0   0 0 0 0 0  0 0 0 0.05 0" type="matrix" in="shadowBlurOuter1" result="shadowMatrixOuter1"></feColorMatrix>
            <feOffset dx="0" dy="1" in="SourceAlpha" result="shadowOffsetOuter2"></feOffset>
            <feGaussianBlur stdDeviation="1.5" in="shadowOffsetOuter2" result="shadowBlurOuter2"></feGaussianBlur>
            <feColorMatrix values="0 0 0 0 0   0 0 0 0 0   0 0 0 0 0  0 0 0 0.1 0" type="matrix" in="shadowBlurOuter2" result="shadowMatrixOuter2"></feColorMatrix>
            <feMerge>
                <feMergeNode in="shadowMatrixOuter1"></feMergeNode>
                <feMergeNode in="shadowMatrixOuter2"></feMergeNode>
            </feMerge>
        </filter>
        <filter x="-10.8%" y="-4.2%" width="121.7%" height="121.7%" filterUnits="objectBoundingBox" id="filter-4">
            <feOffset dx="0" dy="1" in="SourceAlpha" result="shadowOffsetInner1"></feOffset>
            <feComposite in="shadowOffsetInner1" in2="SourceAlpha" operator="arithmetic" k2="-1" k3="1" result="shadowInnerInner1"></feComposite>
            <feColorMatrix values="0 0 0 0 1   0 0 0 0 1   0 0 0 0 1  0 0 0 0.1 0" type="matrix" in="shadowInnerInner1"></feColorMatrix>
        </filter>
        <linearGradient x1="50%" y1="0%" x2="50%" y2="100%" id="linearGradient-5">
            <stop stop-color="#B600FF" offset="0%"></stop>
            <stop stop-color="#8000FF" offset="100%"></stop>
        </linearGradient>
    </defs>
    <g id="Symbols" stroke="none" stroke-width="1" fill="none" fill-rule="evenodd">
        <g id="Menu" transform="translate(1.000000, 1.000000)">
            <g id="logo-framed" transform="translate(5.000000, 1.000000)">
                <g id="Base">
                    <use fill="black" fill-opacity="1" filter="url(#filter-3)" xlink:href="#path-2"></use>
                    <use fill="#FFFFFF" fill-rule="evenodd" xlink:href="#path-2"></use>
                    <use fill-opacity="0.100000001" fill="url(#linearGradient-1)" fill-rule="evenodd" style="mix-blend-mode: overlay;" xlink:href="#path-2"></use>
                    <use fill="black" fill-opacity="1" filter="url(#filter-4)" xlink:href="#path-2"></use>
                </g>
                <path d="M31.923763,30.2355231 L42.703683,14.7186763 C43.2121698,13.9530424 43.0596238,12.881155 42.2968936,12.3196901 C41.4833147,11.7582253 40.4154924,11.9623943 39.856157,12.7280282 L30.4491513,26.2542269 L21.143843,12.7280282 C20.5845076,11.9623943 19.4658366,11.7582253 18.7031064,12.3196901 C17.9403762,12.881155 17.7878302,13.9530424 18.296317,14.7186763 L29.076237,30.1844808 C29.1779343,30.3886499 29.3304804,30.5417767 29.4830264,30.6438612 C30.2457566,31.2563683 31.3644275,31.0521993 31.923763,30.2355231 Z M14,49 C15.1176471,49 16,48.2560322 16,47.3136729 L16,13.6863271 C16,12.7439678 15.1176471,12 14,12 C12.8823529,12 12,12.7439678 12,13.6863271 L12,47.3136729 C12,48.2560322 12.8823529,49 14,49 Z M46.9411765,49 C48.1176471,49 49,48.2560322 49,47.3136729 L49,13.6863271 C49,12.7439678 48.1176471,12 46.9411765,12 C45.8823529,12 45,12.7439678 45,13.6863271 L45,47.3136729 C45,48.2560322 45.8823529,49 46.9411765,49 Z M40.3218884,49 C41.2596567,49 42,48.2351048 42,47.2662376 L42,25.696193 C42,24.7783188 41.2596567,24.0134236 40.3218884,24.0134236 C39.7296137,24.0134236 39.2360515,24.3193817 38.9399142,24.7783188 L30.4506438,37.271607 L22.0600858,24.7273258 C21.5171674,23.9624306 20.4313305,23.7584585 19.6909871,24.3193817 C19.2467811,24.6253398 19,25.1862629 19,25.696193 L19,47.2662376 C19,48.2351048 19.7403433,49 20.6287554,49 C21.6158798,49 22.3562232,48.2351048 22.3562232,47.2662376 L22.3562232,31.2034384 L29.1180258,41.249062 C29.2167382,41.4020411 29.3648069,41.5550201 29.5128755,41.7079991 C30.2532189,42.2179293 31.3390558,42.0139572 31.8819742,41.249062 L38.6437768,31.2034384 L38.6437768,47.2662376 C38.6437768,48.2351048 39.3841202,49 40.3218884,49 Z" id="M" fill="url(#linearGradient-5)" fill-rule="nonzero"></path>
            </g>
        </g>
    </g>
</svg>