<?xml version="1.0" encoding="UTF-8"?>
<svg width="72px" height="72px" viewBox="0 0 72 72" version="1.1" xmlns="http://www.w3.org/2000/svg" xmlns:xlink="http://www.w3.org/1999/xlink">
    <!-- Generator: Sketch 62 (91390) - https://sketch.com -->
    <title>Group</title>
    <desc>Created with Sketch.</desc>
    <defs>
        <linearGradient x1="50%" y1="0%" x2="50%" y2="100%" id="linearGradient-1">
            <stop stop-color="#FFFFFF" stop-opacity="0.5" offset="0%"></stop>
            <stop stop-color="#FFFFFF" stop-opacity="0" offset="100%"></stop>
        </linearGradient>
        <rect id="path-2" x="0" y="0" width="60" height="60" rx="14"></rect>
        <filter x="-18.3%" y="-11.7%" width="136.7%" height="136.7%" filterUnits="objectBoundingBox" id="filter-3">
            <feOffset dx="0" dy="4" in="SourceAlpha" result="shadowOffsetOuter1"></feOffset>
            <feGaussianBlur stdDeviation="3" in="shadowOffsetOuter1" result="shadowBlurOuter1"></feGaussianBlur>
            <feColorMatrix values="0 0 0 0 0   0 0 0 0 0   0 0 0 0 0  0 0 0 0.05 0" type="matrix" in="shadowBlurOuter1" result="shadowMatrixOuter1"></feColorMatrix>
            <feOffset dx="0" dy="1" in="SourceAlpha" result="shadowOffsetOuter2"></feOffset>
            <feGaussianBlur stdDeviation="1.5" in="shadowOffsetOuter2" result="shadowBlurOuter2"></feGaussianBlur>
            <feColorMatrix values="0 0 0 0 0   0 0 0 0 0   0 0 0 0 0  0 0 0 0.1 0" type="matrix" in="shadowBlurOuter2" result="shadowMatrixOuter2"></feColorMatrix>
            <feMerge>
                <feMergeNode in="shadowMatrixOuter1"></feMergeNode>
                <feMergeNode in="shadowMatrixOuter2"></feMergeNode>
            </feMerge>
        </filter>
        <filter x="-10.8%" y="-4.2%" width="121.7%" height="121.7%" filterUnits="objectBoundingBox" id="filter-4">
            <feOffset dx="0" dy="1" in="SourceAlpha" result="shadowOffsetInner1"></feOffset>
            <feComposite in="shadowOffsetInner1" in2="SourceAlpha" operator="arithmetic" k2="-1" k3="1" result="shadowInnerInner1"></feComposite>
            <feColorMatrix values="0 0 0 0 1   0 0 0 0 1   0 0 0 0 1  0 0 0 0.1 0" type="matrix" in="shadowInnerInner1"></feColorMatrix>
        </filter>
        <linearGradient x1="50%" y1="0%" x2="50%" y2="100%" id="linearGradient-5">
            <stop stop-color="#B600FF" offset="0%"></stop>
            <stop stop-color="#8000FF" offset="100%"></stop>
        </linearGradient>
    </defs>
    <g id="Symbols" stroke="none" stroke-width="1" fill="none" fill-rule="evenodd">
        <g id="Menu" transform="translate(1.000000, 1.000000)">
            <g id="Group" transform="translate(5.000000, 1.000000)">
                <g id="logo-framed">
                    <g id="Base">
                        <use fill="black" fill-opacity="1" filter="url(#filter-3)" xlink:href="#path-2"></use>
                        <use fill="#FFFFFF" fill-rule="evenodd" xlink:href="#path-2"></use>
                        <use fill-opacity="0.100000001" fill="url(#linearGradient-1)" fill-rule="evenodd" style="mix-blend-mode: overlay;" xlink:href="#path-2"></use>
                        <use fill="black" fill-opacity="1" filter="url(#filter-4)" xlink:href="#path-2"></use>
                    </g>
                </g>
                <path d="M34.0362108,50 C36.7538453,50 39.4181929,49.469496 41.9226796,48.4615385 C44.0541576,47.6127321 42.7219839,44.3236074 40.5372189,45.2254642 C38.4590278,46.0212202 36.3275497,46.4986737 34.0362108,46.4986737 C23.1123858,46.4986737 17.517256,38.3819629 17.463969,30.0530504 C17.463969,20.7161804 24.2846988,13.5013263 33.87635,13.5013263 C36.1676889,13.5013263 38.4057408,13.9257294 40.5372189,14.8275862 C42.7219839,15.6763926 44.0541576,12.4403183 41.9226796,11.5384615 C39.4181929,10.530504 36.7538453,10 34.0362108,10 C20.6078991,10 13.9470302,20.0795756 14.0003172,30.1591512 C14.0536041,40.0795756 20.76776,50 34.0362108,50 Z M33.5860103,42.9966316 C36.1032124,43.0506504 38.6751363,42.4564436 41.028173,41.1059738 C43.1623226,39.971579 41.4112255,36.8925077 39.3317977,37.9728836 C37.471257,38.9992407 35.446551,39.4313911 33.5312886,39.3773723 C28.8252151,39.2153159 24.6116378,35.9741882 24.6116378,30.0321207 C24.6116378,21.6051886 32.9840707,18.5261172 39.3317977,21.9833201 C41.4112255,23.1717336 43.1623226,19.9846247 41.028173,18.9042488 C32.163244,13.9885384 21,18.9042488 21,30.0321207 C21,38.0269024 26.9099527,42.888594 33.5860103,42.9966316 Z" id="C" fill="url(#linearGradient-5)" fill-rule="nonzero"></path>
            </g>
        </g>
    </g>
</svg>