<?xml version="1.0" encoding="UTF-8"?>
<svg width="24px" height="22px" viewBox="0 0 24 22" version="1.1" xmlns="http://www.w3.org/2000/svg" xmlns:xlink="http://www.w3.org/1999/xlink">
    <!-- Generator: Sketch 61.2 (89653) - https://sketch.com -->
    <title>Shape Copy 2</title>
    <desc>Created with Sketch.</desc>
    <defs>
        <linearGradient x1="50%" y1="100%" x2="50%" y2="2.83467061%" id="linearGradient-1">
            <stop stop-color="#D2D2D2" offset="0%"></stop>
            <stop stop-color="#E5E5E5" offset="100%"></stop>
        </linearGradient>
    </defs>
    <g id="Symbols" stroke="none" stroke-width="1" fill="none" fill-rule="evenodd">
        <g id="TitleBar" transform="translate(-75.000000, -11.000000)">
            <rect id="Rectangle" fill="url(#linearGradient-1)" x="0" y="0" width="1280" height="63"></rect>
            <g id="Shape-Copy-2" transform="translate(75.000000, 11.000000)" fill="#909090">
                <path d="M5.829,20 C5.417,21.165 4.305,22 3,22 C1.344,22 0,20.656 0,19 C0,17.344 1.344,16 3,16 C4.305,16 5.417,16.835 5.829,18 L9.171,18 C9.583,16.835 10.695,16 12,16 C13.305,16 14.417,16.835 14.829,18 L18.171,18 C18.583,16.835 19.695,16 21,16 C22.656,16 24,17.344 24,19 C24,20.656 22.656,22 21,22 C19.695,22 18.583,21.165 18.171,20 L14.829,20 C14.417,21.165 13.305,22 12,22 C10.695,22 9.583,21.165 9.171,20 L5.829,20 Z M12,18 C12.552,18 13,18.448 13,19 C13,19.552 12.552,20 12,20 C11.448,20 11,19.552 11,19 C11,18.448 11.448,18 12,18 Z M12,0 C9.376,0 7,2.127 7,4.751 C7,7.375 9.168,10.507 12,15 C14.832,10.507 17,7.375 17,4.751 C17,2.127 14.624,0 12,0 Z M12,7 C10.895,7 10,6.105 10,5 C10,3.895 10.895,3 12,3 C13.105,3 14,3.895 14,5 C14,6.105 13.105,7 12,7 Z" id="Shape-Copy"></path>
            </g>
        </g>
    </g>
</svg>