<?xml version="1.0" encoding="UTF-8"?>
<svg width="10px" height="11px" viewBox="0 0 10 11" version="1.1" xmlns="http://www.w3.org/2000/svg" xmlns:xlink="http://www.w3.org/1999/xlink">
    <!-- Generator: Sketch 61.2 (89653) - https://sketch.com -->
    <title>Group Copy 2</title>
    <desc>Created with Sketch.</desc>
    <g id="Page-1" stroke="none" stroke-width="1" fill="none" fill-rule="evenodd">
        <g id="Pro-Editor-Copy-3" transform="translate(-331.000000, -223.000000)" fill="#000000">
            <g id="Group-Copy-2" transform="translate(331.000000, 223.000000)">
                <path d="M3.63636364,1.375 L6.36363636,1.375 L6.36363636,0.572916667 C6.36363636,0.542666667 6.35181818,0.513333333 6.33045455,0.491791667 C6.30909091,0.47025 6.28,0.458333333 6.25,0.458333333 L3.75,0.458333333 C3.72,0.458333333 3.69090909,0.47025 3.66954545,0.491791667 C3.64818182,0.513333333 3.63636364,0.542666667 3.63636364,0.572916667 L3.63636364,1.375 Z M8.63636364,1.83333333 L1.36363636,1.83333333 L1.36363636,10.0833333 C1.36363636,10.3363333 1.56727273,10.5416667 1.81818182,10.5416667 L8.18181818,10.5416667 C8.43272727,10.5416667 8.63636364,10.3363333 8.63636364,10.0833333 L8.63636364,1.83333333 Z M4.09090909,3.4375 C4.09090909,3.311 3.98909091,3.20833333 3.86363636,3.20833333 C3.73818182,3.20833333 3.63636364,3.311 3.63636364,3.4375 L3.63636364,8.9375 C3.63636364,9.064 3.73818182,9.16666667 3.86363636,9.16666667 C3.98909091,9.16666667 4.09090909,9.064 4.09090909,8.9375 L4.09090909,3.4375 Z M6.36363636,3.4375 C6.36363636,3.311 6.26181818,3.20833333 6.13636364,3.20833333 C6.01090909,3.20833333 5.90909091,3.311 5.90909091,3.4375 L5.90909091,8.9375 C5.90909091,9.064 6.01090909,9.16666667 6.13636364,9.16666667 C6.26181818,9.16666667 6.36363636,9.064 6.36363636,8.9375 L6.36363636,3.4375 Z M10,1.375 L10,1.83333333 L9.09090909,1.83333333 L9.09090909,10.0833333 C9.09090909,10.5897917 8.68409091,11 8.18181818,11 L1.81818182,11 C1.31590909,11 0.909090909,10.5897917 0.909090909,10.0833333 L0.909090909,1.83333333 L0,1.83333333 L0,1.375 L3.18181818,1.375 L3.18181818,0.458333333 C3.18181818,0.205333333 3.38545455,0 3.63636364,0 L6.36363636,0 C6.61454545,0 6.81818182,0.205333333 6.81818182,0.458333333 L6.81818182,1.375 L10,1.375 Z" id="Shape"></path>
            </g>
        </g>
    </g>
</svg>