<?xml version="1.0" encoding="UTF-8"?>
<svg width="12px" height="12px" viewBox="0 0 12 12" version="1.1" xmlns="http://www.w3.org/2000/svg" xmlns:xlink="http://www.w3.org/1999/xlink">
    <!-- Generator: Sketch 61.2 (89653) - https://sketch.com -->
    <title>Shape</title>
    <desc>Created with Sketch.</desc>
    <g id="Page-1" stroke="none" stroke-width="1" fill="none" fill-rule="evenodd">
        <g id="Pro-Editor" transform="translate(-628.000000, -388.000000)">
            <g id="Group" transform="translate(628.000000, 388.000000)" fill="#222222">
                <path d="M6,4.333 C5.081,4.333 4.3335,5.081 4.3335,6 C4.3335,6.919 5.081,7.6665 6,7.6665 C6.919,7.6665 7.6665,6.919 7.6665,6 C7.6665,5.081 6.919,4.333 6,4.333 M6,8.1665 C4.805,8.1665 3.8335,7.195 3.8335,6 C3.8335,4.805 4.805,3.833 6,3.833 C7.195,3.833 8.1665,4.805 8.1665,6 C8.1665,7.195 7.195,8.1665 6,8.1665 M5.4035,11.5 L6.5965,11.5 C6.786,10.948 6.9305,10.2745 7.65,9.975 C8.398,9.6665 8.983,10.073 9.4675,10.311 L10.3105,9.467 C10.0565,8.9435 9.6775,8.3675 9.976,7.6465 C10.2595,6.962 10.8455,6.815 11.5,6.597 L11.5,5.403 C10.8825,5.1925 10.2645,5.049 9.9765,4.354 C9.6905,3.664 10.005,3.1565 10.311,2.5325 L9.4675,1.6895 C8.909,1.963 8.357,2.318 7.6465,2.0235 C6.9595,1.738 6.8185,1.1565 6.5965,0.5 L5.4035,0.5 C5.1915,1.1155 5.0515,1.734 4.354,2.023 C4.1715,2.0995 3.995,2.136 3.8155,2.136 C3.394,2.136 3.046,1.94 2.5325,1.6895 L1.689,2.5325 C1.976,3.12 2.3145,3.651 2.0235,4.354 C1.738,5.0415 1.1565,5.181 0.5,5.403 L0.5,6.597 C1.113,6.806 1.734,6.9495 2.0235,7.646 C2.314,8.3475 1.986,8.862 1.689,9.4675 L2.5325,10.311 C3.2575,9.9485 3.71,9.709 4.3535,9.9765 C5.0425,10.2625 5.181,10.8455 5.4035,11.5 M6.9505,12 L5.049,12 C4.7085,11.041 4.6565,10.6435 4.1625,10.4385 C3.66,10.229 3.297,10.5045 2.4295,10.9145 L1.085,9.57 C1.5215,8.6515 1.7685,8.3375 1.5615,7.8375 C1.3555,7.342 0.9655,7.294 -8.43769499e-15,6.951 L-8.43769499e-15,5.049 C0.953,4.71 1.356,4.658 1.5615,4.1625 C1.767,3.667 1.526,3.356 1.085,2.4295 L2.4295,1.0855 C3.3,1.4995 3.6625,1.768 4.162,1.562 C4.658,1.356 4.703,0.9695 5.0495,4.4408921e-16 L6.9505,4.4408921e-16 C7.2915,0.959 7.3445,1.357 7.8375,1.5615 C8.338,1.7695 8.692,1.502 9.571,1.0855 L10.9145,2.4295 C10.4755,3.353 10.234,3.668 10.4385,4.162 C10.644,4.658 11.0345,4.7055 12,5.049 L12,6.9515 C11.047,7.29 10.6435,7.3425 10.438,7.838 C10.2365,8.3255 10.46,8.6185 10.915,9.57 L9.571,10.9145 C8.707,10.5045 8.3375,10.2295 7.843,10.437 C7.349,10.642 7.303,11.01 6.9505,12" id="Shape"></path>
            </g>
        </g>
    </g>
</svg>