<?xml version="1.0" encoding="UTF-8"?>
<svg width="444px" height="41px" viewBox="0 0 444 41" version="1.1" xmlns="http://www.w3.org/2000/svg" xmlns:xlink="http://www.w3.org/1999/xlink">
    <!-- Generator: Sketch 61.2 (89653) - https://sketch.com -->
    <title>FeaturedeCards</title>
    <desc>Created with Sketch.</desc>
    <g id="Foundation:-niceverynice.com" stroke="none" stroke-width="1" fill="none" fill-rule="evenodd">
        <g id="Main-Page" transform="translate(-536.000000, -1000.000000)" fill="#2B292D" fill-rule="nonzero">
            <g id="Group-10" transform="translate(83.000000, 988.000000)">
                <path d="M462.72,52 L462.72,37.776 L477.952,37.776 L477.952,30.328 L462.72,30.328 L462.72,22.488 L481.816,22.488 L481.816,15.04 L453.088,15.04 L453.088,52 L462.72,52 Z M497.314,52.56 C500.599333,52.56 503.371333,51.9346667 505.63,50.684 C507.888667,49.4333333 509.41,47.6133333 510.194,45.224 L510.194,45.224 L502.466,42.76 C502.167333,43.768 501.579333,44.5333333 500.702,45.056 C499.824667,45.5786667 498.695333,45.84 497.314,45.84 C495.671333,45.84 494.355333,45.4293333 493.366,44.608 C492.376667,43.7866667 491.732667,42.4986667 491.434,40.744 L491.434,40.744 L510.53,40.744 C510.716667,39.9226667 510.81,38.8773333 510.81,37.608 C510.81,33.128 509.606,29.6466667 507.198,27.164 C504.79,24.6813333 501.327333,23.44 496.81,23.44 C492.143333,23.44 488.540667,24.7093333 486.002,27.248 C483.463333,29.7866667 482.194,33.3706667 482.194,38 C482.194,42.6293333 483.491333,46.2133333 486.086,48.752 C488.680667,51.2906667 492.423333,52.56 497.314,52.56 Z M501.906,35.592 L491.378,35.592 C491.938,31.9333333 493.73,30.104 496.754,30.104 C499.740667,30.104 501.458,31.9333333 501.906,35.592 L501.906,35.592 Z M540.028,52.56 C541.484,52.56 542.753333,52.2613333 543.836,51.664 L543.836,51.664 L544.564,46.344 C544.116,46.4933333 543.537333,46.568 542.828,46.568 C541.484,46.568 540.812,45.84 540.812,44.384 L540.812,44.384 L540.812,34.192 C540.812,30.608 539.673333,27.92 537.396,26.128 C535.118667,24.336 531.796,23.44 527.428,23.44 C523.694667,23.44 520.726667,24.196 518.524,25.708 C516.321333,27.22 514.977333,29.3386667 514.492,32.064 L514.492,32.064 L522.22,34.304 C522.481333,32.7733333 523.06,31.672 523.956,31 C524.852,30.328 526.009333,29.992 527.428,29.992 C528.66,29.992 529.630667,30.3653333 530.34,31.112 C531.049333,31.8586667 531.404,32.8666667 531.404,34.136 L531.404,34.136 L531.404,35.144 L525.076,36.376 C521.193333,37.16 518.402667,38.2893333 516.704,39.764 C515.005333,41.2386667 514.156,43.1706667 514.156,45.56 C514.156,47.8373333 514.902667,49.5733333 516.396,50.768 C517.889333,51.9626667 520.036,52.56 522.836,52.56 C527.801333,52.56 531.124,51.1226667 532.804,48.248 C533.588,51.1226667 535.996,52.56 540.028,52.56 Z M526.308,46.4 C525.449333,46.4 524.777333,46.1946667 524.292,45.784 C523.806667,45.3733333 523.564,44.776 523.564,43.992 C523.564,43.208 523.816,42.6013333 524.32,42.172 C524.824,41.7426667 525.673333,41.3786667 526.868,41.08 L526.868,41.08 L531.404,40.016 L531.404,42.424 C531.404,43.6186667 530.881333,44.58 529.836,45.308 C528.790667,46.036 527.614667,46.4 526.308,46.4 Z M559.278,52.56 C560.734,52.56 562.180667,52.364 563.618,51.972 C565.055333,51.58 566.240667,51.0666667 567.174,50.432 L567.174,50.432 L566.222,44.552 C565.064667,45.3733333 563.720667,45.784 562.19,45.784 C559.726,45.784 558.494,44.5333333 558.494,42.032 L558.494,42.032 L558.494,30.776 L566.894,30.776 L566.894,24 L558.494,24 L558.494,15.096 L548.974,17.728 L548.974,24 L544.158,24 L544.158,30.776 L548.974,30.776 L548.974,43.6 C549.011333,46.736 549.907333,49.0133333 551.662,50.432 C553.416667,51.8506667 555.955333,52.56 559.278,52.56 Z M580.264,52.56 C584.968,52.56 588.197333,50.6373333 589.952,46.792 L589.952,46.792 L590.232,52 L598.744,52 L598.744,24 L589.224,24 L589.224,38.84 C589.224,41.0053333 588.757333,42.62 587.824,43.684 C586.890667,44.748 585.64,45.28 584.072,45.28 C582.765333,45.28 581.794667,44.9066667 581.16,44.16 C580.525333,43.4133333 580.208,42.1253333 580.208,40.296 L580.208,40.296 L580.208,24 L570.688,24 L570.688,42.704 C570.688,46.1013333 571.537333,48.5933333 573.236,50.18 C574.934667,51.7666667 577.277333,52.56 580.264,52.56 Z M614.746,52 L614.746,37.888 C614.746,35.76 615.343333,34.1266667 616.538,32.988 C617.732667,31.8493333 619.226,31.28 621.018,31.28 C621.727333,31.28 622.399333,31.364 623.034,31.532 C623.668667,31.7 624.172667,31.896 624.546,32.12 L624.546,32.12 L625.554,24.056 C624.807333,23.6453333 623.799333,23.44 622.53,23.44 C620.402,23.44 618.619333,24.0093333 617.182,25.148 C615.744667,26.2866667 614.69,27.92 614.018,30.048 L614.018,30.048 L613.626,24 L605.226,24 L605.226,52 L614.746,52 Z M642.396,52.56 C645.681333,52.56 648.453333,51.9346667 650.712,50.684 C652.970667,49.4333333 654.492,47.6133333 655.276,45.224 L655.276,45.224 L647.548,42.76 C647.249333,43.768 646.661333,44.5333333 645.784,45.056 C644.906667,45.5786667 643.777333,45.84 642.396,45.84 C640.753333,45.84 639.437333,45.4293333 638.448,44.608 C637.458667,43.7866667 636.814667,42.4986667 636.516,40.744 L636.516,40.744 L655.612,40.744 C655.798667,39.9226667 655.892,38.8773333 655.892,37.608 C655.892,33.128 654.688,29.6466667 652.28,27.164 C649.872,24.6813333 646.409333,23.44 641.892,23.44 C637.225333,23.44 633.622667,24.7093333 631.084,27.248 C628.545333,29.7866667 627.276,33.3706667 627.276,38 C627.276,42.6293333 628.573333,46.2133333 631.168,48.752 C633.762667,51.2906667 637.505333,52.56 642.396,52.56 Z M646.988,35.592 L636.46,35.592 C637.02,31.9333333 638.812,30.104 641.836,30.104 C644.822667,30.104 646.54,31.9333333 646.988,35.592 L646.988,35.592 Z M671.222,52.56 C673.312667,52.56 675.151333,52.0373333 676.738,50.992 C678.324667,49.9466667 679.528667,48.5093333 680.35,46.68 L680.35,46.68 L680.686,52 L689.254,52 L689.254,12.128 L679.734,12.128 L679.734,28.704 C678.912667,27.0613333 677.792667,25.7733333 676.374,24.84 C674.955333,23.9066667 673.256667,23.44 671.278,23.44 C667.656667,23.44 664.819333,24.728 662.766,27.304 C660.712667,29.88 659.686,33.4826667 659.686,38.112 C659.686,42.6666667 660.703333,46.2133333 662.738,48.752 C664.772667,51.2906667 667.600667,52.56 671.222,52.56 Z M674.526,45.56 C672.846,45.56 671.548667,44.944 670.634,43.712 C669.719333,42.48 669.262,40.576 669.262,38 C669.262,35.424 669.719333,33.52 670.634,32.288 C671.548667,31.056 672.846,30.44 674.526,30.44 C676.056667,30.44 677.279333,31 678.194,32.12 C679.108667,33.24 679.622,34.8266667 679.734,36.88 L679.734,36.88 L679.734,39.12 C679.622,41.2106667 679.108667,42.8066667 678.194,43.908 C677.279333,45.0093333 676.056667,45.56 674.526,45.56 Z M725.122,52.56 C728.407333,52.56 731.179333,51.9346667 733.438,50.684 C735.696667,49.4333333 737.218,47.6133333 738.002,45.224 L738.002,45.224 L730.274,42.76 C729.975333,43.768 729.387333,44.5333333 728.51,45.056 C727.632667,45.5786667 726.503333,45.84 725.122,45.84 C723.479333,45.84 722.163333,45.4293333 721.174,44.608 C720.184667,43.7866667 719.540667,42.4986667 719.242,40.744 L719.242,40.744 L738.338,40.744 C738.524667,39.9226667 738.618,38.8773333 738.618,37.608 C738.618,33.128 737.414,29.6466667 735.006,27.164 C732.598,24.6813333 729.135333,23.44 724.618,23.44 C719.951333,23.44 716.348667,24.7093333 713.81,27.248 C711.271333,29.7866667 710.002,33.3706667 710.002,38 C710.002,42.6293333 711.299333,46.2133333 713.894,48.752 C716.488667,51.2906667 720.231333,52.56 725.122,52.56 Z M729.714,35.592 L719.186,35.592 C719.746,31.9333333 721.538,30.104 724.562,30.104 C727.548667,30.104 729.266,31.9333333 729.714,35.592 L729.714,35.592 Z M760.836,52.56 C764.905333,52.56 768.358667,51.636 771.196,49.788 C774.033333,47.94 775.974667,45.1493333 777.02,41.416 L777.02,41.416 L768.284,38.952 C767.836,41.0426667 767.014667,42.5733333 765.82,43.544 C764.625333,44.5146667 763.001333,45 760.948,45 C758.222667,45 756.141333,44.02 754.704,42.06 C753.266667,40.1 752.548,37.2533333 752.548,33.52 C752.548,29.7866667 753.294667,26.94 754.788,24.98 C756.281333,23.02 758.390667,22.04 761.116,22.04 C763.094667,22.04 764.625333,22.488 765.708,23.384 C766.790667,24.28 767.593333,25.848 768.116,28.088 L768.116,28.088 L776.572,24.672 C775.676,21.2746667 773.828,18.7266667 771.028,17.028 C768.228,15.3293333 764.812,14.48 760.78,14.48 C757.084,14.48 753.873333,15.236 751.148,16.748 C748.422667,18.26 746.332,20.4533333 744.876,23.328 C743.42,26.2026667 742.692,29.6 742.692,33.52 C742.692,37.4773333 743.42,40.884 744.876,43.74 C746.332,46.596 748.422667,48.78 751.148,50.292 C753.873333,51.804 757.102667,52.56 760.836,52.56 Z M805.622,52.56 C807.078,52.56 808.347333,52.2613333 809.43,51.664 L809.43,51.664 L810.158,46.344 C809.71,46.4933333 809.131333,46.568 808.422,46.568 C807.078,46.568 806.406,45.84 806.406,44.384 L806.406,44.384 L806.406,34.192 C806.406,30.608 805.267333,27.92 802.99,26.128 C800.712667,24.336 797.39,23.44 793.022,23.44 C789.288667,23.44 786.320667,24.196 784.118,25.708 C781.915333,27.22 780.571333,29.3386667 780.086,32.064 L780.086,32.064 L787.814,34.304 C788.075333,32.7733333 788.654,31.672 789.55,31 C790.446,30.328 791.603333,29.992 793.022,29.992 C794.254,29.992 795.224667,30.3653333 795.934,31.112 C796.643333,31.8586667 796.998,32.8666667 796.998,34.136 L796.998,34.136 L796.998,35.144 L790.67,36.376 C786.787333,37.16 783.996667,38.2893333 782.298,39.764 C780.599333,41.2386667 779.75,43.1706667 779.75,45.56 C779.75,47.8373333 780.496667,49.5733333 781.99,50.768 C783.483333,51.9626667 785.63,52.56 788.43,52.56 C793.395333,52.56 796.718,51.1226667 798.398,48.248 C799.182,51.1226667 801.59,52.56 805.622,52.56 Z M791.902,46.4 C791.043333,46.4 790.371333,46.1946667 789.886,45.784 C789.400667,45.3733333 789.158,44.776 789.158,43.992 C789.158,43.208 789.41,42.6013333 789.914,42.172 C790.418,41.7426667 791.267333,41.3786667 792.462,41.08 L792.462,41.08 L796.998,40.016 L796.998,42.424 C796.998,43.6186667 796.475333,44.58 795.43,45.308 C794.384667,46.036 793.208667,46.4 791.902,46.4 Z M823.08,52 L823.08,37.888 C823.08,35.76 823.677333,34.1266667 824.872,32.988 C826.066667,31.8493333 827.56,31.28 829.352,31.28 C830.061333,31.28 830.733333,31.364 831.368,31.532 C832.002667,31.7 832.506667,31.896 832.88,32.12 L832.88,32.12 L833.888,24.056 C833.141333,23.6453333 832.133333,23.44 830.864,23.44 C828.736,23.44 826.953333,24.0093333 825.516,25.148 C824.078667,26.2866667 823.024,27.92 822.352,30.048 L822.352,30.048 L821.96,24 L813.56,24 L813.56,52 L823.08,52 Z M847.314,52.56 C849.404667,52.56 851.243333,52.0373333 852.83,50.992 C854.416667,49.9466667 855.620667,48.5093333 856.442,46.68 L856.442,46.68 L856.778,52 L865.346,52 L865.346,12.128 L855.826,12.128 L855.826,28.704 C855.004667,27.0613333 853.884667,25.7733333 852.466,24.84 C851.047333,23.9066667 849.348667,23.44 847.37,23.44 C843.748667,23.44 840.911333,24.728 838.858,27.304 C836.804667,29.88 835.778,33.4826667 835.778,38.112 C835.778,42.6666667 836.795333,46.2133333 838.83,48.752 C840.864667,51.2906667 843.692667,52.56 847.314,52.56 Z M850.618,45.56 C848.938,45.56 847.640667,44.944 846.726,43.712 C845.811333,42.48 845.354,40.576 845.354,38 C845.354,35.424 845.811333,33.52 846.726,32.288 C847.640667,31.056 848.938,30.44 850.618,30.44 C852.148667,30.44 853.371333,31 854.286,32.12 C855.200667,33.24 855.714,34.8266667 855.826,36.88 L855.826,36.88 L855.826,39.12 C855.714,41.2106667 855.200667,42.8066667 854.286,43.908 C853.371333,45.0093333 852.148667,45.56 850.618,45.56 Z M883.364,52.56 C887.694667,52.56 890.998667,51.7106667 893.276,50.012 C895.553333,48.3133333 896.692,46.1013333 896.692,43.376 C896.692,40.9493333 895.786667,39.036 893.976,37.636 C892.165333,36.236 889.206667,35.1813333 885.1,34.472 C883.196,34.0986667 881.861333,33.716 881.096,33.324 C880.330667,32.932 879.948,32.456 879.948,31.896 C879.948,31.2986667 880.321333,30.7946667 881.068,30.384 C881.814667,29.9733333 882.86,29.768 884.204,29.768 C885.921333,29.768 887.396,30.0666667 888.628,30.664 C889.86,31.2613333 890.924,32.2133333 891.82,33.52 L891.82,33.52 L896.748,28.704 C895.478667,26.9493333 893.826667,25.6333333 891.792,24.756 C889.757333,23.8786667 887.134667,23.44 883.924,23.44 C881.012,23.44 878.538667,23.8786667 876.504,24.756 C874.469333,25.6333333 872.948,26.7813333 871.94,28.2 C870.932,29.6186667 870.428,31.1306667 870.428,32.736 C870.428,35.088 871.314667,36.9733333 873.088,38.392 C874.861333,39.8106667 877.838667,40.9306667 882.02,41.752 C883.886667,42.1253333 885.202667,42.508 885.968,42.9 C886.733333,43.292 887.116,43.7493333 887.116,44.272 C887.116,44.8693333 886.742667,45.3453333 885.996,45.7 C885.249333,46.0546667 884.222667,46.232 882.916,46.232 C878.996,46.232 876.233333,44.9066667 874.628,42.256 L874.628,42.256 L869.7,47.632 C872.388,50.9173333 876.942667,52.56 883.364,52.56 Z" id="FeaturedeCards"></path>
            </g>
        </g>
    </g>
</svg>