<?xml version="1.0" encoding="UTF-8"?>
<svg width="747px" height="138px" viewBox="0 0 747 138" version="1.1" xmlns="http://www.w3.org/2000/svg" xmlns:xlink="http://www.w3.org/1999/xlink">
    <!-- Generator: Sketch 61.2 (89653) - https://sketch.com -->
    <title>HeartfelteCardswithvisualeffects!</title>
    <desc>Created with Sketch.</desc>
    <g id="Foundation:-niceverynice.com" stroke="none" stroke-width="1" fill="none" fill-rule="evenodd">
        <path d="M19.6,59 L19.6,37.72 L39.76,37.72 L39.76,59 L53.52,59 L53.52,6.2 L39.76,6.2 L39.76,27.08 L19.6,27.08 L19.6,6.2 L5.84,6.2 L5.84,59 L19.6,59 Z M83.1,59.8 C87.7933333,59.8 91.7533333,58.9066667 94.98,57.12 C98.2066667,55.3333333 100.38,52.7333333 101.5,49.32 L101.5,49.32 L90.46,45.8 C90.0333333,47.24 89.1933333,48.3333333 87.94,49.08 C86.6866667,49.8266667 85.0733333,50.2 83.1,50.2 C80.7533333,50.2 78.8733333,49.6133333 77.46,48.44 C76.0466667,47.2666667 75.1266667,45.4266667 74.7,42.92 L74.7,42.92 L101.98,42.92 C102.246667,41.7466667 102.38,40.2533333 102.38,38.44 C102.38,32.04 100.66,27.0666667 97.22,23.52 C93.78,19.9733333 88.8333333,18.2 82.38,18.2 C75.7133333,18.2 70.5666667,20.0133333 66.94,23.64 C63.3133333,27.2666667 61.5,32.3866667 61.5,39 C61.5,45.6133333 63.3533333,50.7333333 67.06,54.36 C70.7666667,57.9866667 76.1133333,59.8 83.1,59.8 Z M89.66,35.56 L74.62,35.56 C75.42,30.3333333 77.98,27.72 82.3,27.72 C86.5666667,27.72 89.02,30.3333333 89.66,35.56 L89.66,35.56 Z M144.12,59.8 C146.2,59.8 148.013333,59.3733333 149.56,58.52 L149.56,58.52 L150.6,50.92 C149.96,51.1333333 149.133333,51.24 148.12,51.24 C146.2,51.24 145.24,50.2 145.24,48.12 L145.24,48.12 L145.24,33.56 C145.24,28.44 143.613333,24.6 140.36,22.04 C137.106667,19.48 132.36,18.2 126.12,18.2 C120.786667,18.2 116.546667,19.28 113.4,21.44 C110.253333,23.6 108.333333,26.6266667 107.64,30.52 L107.64,30.52 L118.68,33.72 C119.053333,31.5333333 119.88,29.96 121.16,29 C122.44,28.04 124.093333,27.56 126.12,27.56 C127.88,27.56 129.266667,28.0933333 130.28,29.16 C131.293333,30.2266667 131.8,31.6666667 131.8,33.48 L131.8,33.48 L131.8,34.92 L122.76,36.68 C117.213333,37.8 113.226667,39.4133333 110.8,41.52 C108.373333,43.6266667 107.16,46.3866667 107.16,49.8 C107.16,53.0533333 108.226667,55.5333333 110.36,57.24 C112.493333,58.9466667 115.56,59.8 119.56,59.8 C126.653333,59.8 131.4,57.7466667 133.8,53.64 C134.92,57.7466667 138.36,59.8 144.12,59.8 Z M124.52,51 C123.293333,51 122.333333,50.7066667 121.64,50.12 C120.946667,49.5333333 120.6,48.68 120.6,47.56 C120.6,46.44 120.96,45.5733333 121.68,44.96 C122.4,44.3466667 123.613333,43.8266667 125.32,43.4 L125.32,43.4 L131.8,41.88 L131.8,45.32 C131.8,47.0266667 131.053333,48.4 129.56,49.44 C128.066667,50.48 126.386667,51 124.52,51 Z M169.06,59 L169.06,38.84 C169.06,35.8 169.913333,33.4666667 171.62,31.84 C173.326667,30.2133333 175.46,29.4 178.02,29.4 C179.033333,29.4 179.993333,29.52 180.9,29.76 C181.806667,30 182.526667,30.28 183.06,30.6 L183.06,30.6 L184.5,19.08 C183.433333,18.4933333 181.993333,18.2 180.18,18.2 C177.14,18.2 174.593333,19.0133333 172.54,20.64 C170.486667,22.2666667 168.98,24.6 168.02,27.64 L168.02,27.64 L167.46,19 L155.46,19 L155.46,59 L169.06,59 Z M206.16,59.8 C208.24,59.8 210.306667,59.52 212.36,58.96 C214.413333,58.4 216.106667,57.6666667 217.44,56.76 L217.44,56.76 L216.08,48.36 C214.426667,49.5333333 212.506667,50.12 210.32,50.12 C206.8,50.12 205.04,48.3333333 205.04,44.76 L205.04,44.76 L205.04,28.68 L217.04,28.68 L217.04,19 L205.04,19 L205.04,6.28 L191.44,10.04 L191.44,19 L184.56,19 L184.56,28.68 L191.44,28.68 L191.44,47 C191.493333,51.48 192.773333,54.7333333 195.28,56.76 C197.786667,58.7866667 201.413333,59.8 206.16,59.8 Z M238.38,59 L238.38,28.68 L249.74,28.68 L249.74,19 L237.58,19 L237.58,16.2 C237.58,12.36 239.793333,10.44 244.22,10.44 C246.086667,10.44 247.606667,10.8666667 248.78,11.72 L248.78,11.72 L250.14,3.24 C248.166667,1.69333333 245.1,0.92 240.94,0.92 C236.14,0.92 232.246667,2.12 229.26,4.52 C226.273333,6.92 224.78,10.52 224.78,15.32 L224.78,15.32 L224.78,19 L218.38,19 L218.38,28.68 L224.78,28.68 L224.78,59 L238.38,59 Z M273.96,59.8 C278.653333,59.8 282.613333,58.9066667 285.84,57.12 C289.066667,55.3333333 291.24,52.7333333 292.36,49.32 L292.36,49.32 L281.32,45.8 C280.893333,47.24 280.053333,48.3333333 278.8,49.08 C277.546667,49.8266667 275.933333,50.2 273.96,50.2 C271.613333,50.2 269.733333,49.6133333 268.32,48.44 C266.906667,47.2666667 265.986667,45.4266667 265.56,42.92 L265.56,42.92 L292.84,42.92 C293.106667,41.7466667 293.24,40.2533333 293.24,38.44 C293.24,32.04 291.52,27.0666667 288.08,23.52 C284.64,19.9733333 279.693333,18.2 273.24,18.2 C266.573333,18.2 261.426667,20.0133333 257.8,23.64 C254.173333,27.2666667 252.36,32.3866667 252.36,39 C252.36,45.6133333 254.213333,50.7333333 257.92,54.36 C261.626667,57.9866667 266.973333,59.8 273.96,59.8 Z M280.52,35.56 L265.48,35.56 C266.28,30.3333333 268.84,27.72 273.16,27.72 C277.426667,27.72 279.88,30.3333333 280.52,35.56 L280.52,35.56 Z M312.34,59.8 C313.833333,59.8 315.353333,59.6133333 316.9,59.24 C318.446667,58.8666667 319.7,58.3866667 320.66,57.8 L320.66,57.8 L321.54,49.4 C320.1,49.88 318.74,50.12 317.46,50.12 C316.073333,50.12 315.113333,49.7466667 314.58,49 C314.046667,48.2533333 313.78,46.9733333 313.78,45.16 L313.78,45.16 L313.78,2.04 L300.18,2.04 L300.18,47.16 C300.18,51.5866667 301.14,54.8 303.06,56.8 C304.98,58.8 308.073333,59.8 312.34,59.8 Z M342.4,59.8 C344.48,59.8 346.546667,59.52 348.6,58.96 C350.653333,58.4 352.346667,57.6666667 353.68,56.76 L353.68,56.76 L352.32,48.36 C350.666667,49.5333333 348.746667,50.12 346.56,50.12 C343.04,50.12 341.28,48.3333333 341.28,44.76 L341.28,44.76 L341.28,28.68 L353.28,28.68 L353.28,19 L341.28,19 L341.28,6.28 L327.68,10.04 L327.68,19 L320.8,19 L320.8,28.68 L327.68,28.68 L327.68,47 C327.733333,51.48 329.013333,54.7333333 331.52,56.76 C334.026667,58.7866667 337.653333,59.8 342.4,59.8 Z M401,59.8 C405.693333,59.8 409.653333,58.9066667 412.88,57.12 C416.106667,55.3333333 418.28,52.7333333 419.4,49.32 L419.4,49.32 L408.36,45.8 C407.933333,47.24 407.093333,48.3333333 405.84,49.08 C404.586667,49.8266667 402.973333,50.2 401,50.2 C398.653333,50.2 396.773333,49.6133333 395.36,48.44 C393.946667,47.2666667 393.026667,45.4266667 392.6,42.92 L392.6,42.92 L419.88,42.92 C420.146667,41.7466667 420.28,40.2533333 420.28,38.44 C420.28,32.04 418.56,27.0666667 415.12,23.52 C411.68,19.9733333 406.733333,18.2 400.28,18.2 C393.613333,18.2 388.466667,20.0133333 384.84,23.64 C381.213333,27.2666667 379.4,32.3866667 379.4,39 C379.4,45.6133333 381.253333,50.7333333 384.96,54.36 C388.666667,57.9866667 394.013333,59.8 401,59.8 Z M407.56,35.56 L392.52,35.56 C393.32,30.3333333 395.88,27.72 400.2,27.72 C404.466667,27.72 406.92,30.3333333 407.56,35.56 L407.56,35.56 Z M452.02,59.8 C457.833333,59.8 462.766667,58.48 466.82,55.84 C470.873333,53.2 473.646667,49.2133333 475.14,43.88 L475.14,43.88 L462.66,40.36 C462.02,43.3466667 460.846667,45.5333333 459.14,46.92 C457.433333,48.3066667 455.113333,49 452.18,49 C448.286667,49 445.313333,47.6 443.26,44.8 C441.206667,42 440.18,37.9333333 440.18,32.6 C440.18,27.2666667 441.246667,23.2 443.38,20.4 C445.513333,17.6 448.526667,16.2 452.42,16.2 C455.246667,16.2 457.433333,16.84 458.98,18.12 C460.526667,19.4 461.673333,21.64 462.42,24.84 L462.42,24.84 L474.5,19.96 C473.22,15.1066667 470.58,11.4666667 466.58,9.04 C462.58,6.61333333 457.7,5.4 451.94,5.4 C446.66,5.4 442.073333,6.48 438.18,8.64 C434.286667,10.8 431.3,13.9333333 429.22,18.04 C427.14,22.1466667 426.1,27 426.1,32.6 C426.1,38.2533333 427.14,43.12 429.22,47.2 C431.3,51.28 434.286667,54.4 438.18,56.56 C442.073333,58.72 446.686667,59.8 452.02,59.8 Z M516,59.8 C518.08,59.8 519.893333,59.3733333 521.44,58.52 L521.44,58.52 L522.48,50.92 C521.84,51.1333333 521.013333,51.24 520,51.24 C518.08,51.24 517.12,50.2 517.12,48.12 L517.12,48.12 L517.12,33.56 C517.12,28.44 515.493333,24.6 512.24,22.04 C508.986667,19.48 504.24,18.2 498,18.2 C492.666667,18.2 488.426667,19.28 485.28,21.44 C482.133333,23.6 480.213333,26.6266667 479.52,30.52 L479.52,30.52 L490.56,33.72 C490.933333,31.5333333 491.76,29.96 493.04,29 C494.32,28.04 495.973333,27.56 498,27.56 C499.76,27.56 501.146667,28.0933333 502.16,29.16 C503.173333,30.2266667 503.68,31.6666667 503.68,33.48 L503.68,33.48 L503.68,34.92 L494.64,36.68 C489.093333,37.8 485.106667,39.4133333 482.68,41.52 C480.253333,43.6266667 479.04,46.3866667 479.04,49.8 C479.04,53.0533333 480.106667,55.5333333 482.24,57.24 C484.373333,58.9466667 487.44,59.8 491.44,59.8 C498.533333,59.8 503.28,57.7466667 505.68,53.64 C506.8,57.7466667 510.24,59.8 516,59.8 Z M496.4,51 C495.173333,51 494.213333,50.7066667 493.52,50.12 C492.826667,49.5333333 492.48,48.68 492.48,47.56 C492.48,46.44 492.84,45.5733333 493.56,44.96 C494.28,44.3466667 495.493333,43.8266667 497.2,43.4 L497.2,43.4 L503.68,41.88 L503.68,45.32 C503.68,47.0266667 502.933333,48.4 501.44,49.44 C499.946667,50.48 498.266667,51 496.4,51 Z M540.94,59 L540.94,38.84 C540.94,35.8 541.793333,33.4666667 543.5,31.84 C545.206667,30.2133333 547.34,29.4 549.9,29.4 C550.913333,29.4 551.873333,29.52 552.78,29.76 C553.686667,30 554.406667,30.28 554.94,30.6 L554.94,30.6 L556.38,19.08 C555.313333,18.4933333 553.873333,18.2 552.06,18.2 C549.02,18.2 546.473333,19.0133333 544.42,20.64 C542.366667,22.2666667 540.86,24.6 539.9,27.64 L539.9,27.64 L539.34,19 L527.34,19 L527.34,59 L540.94,59 Z M575.56,59.8 C578.546667,59.8 581.173333,59.0533333 583.44,57.56 C585.706667,56.0666667 587.426667,54.0133333 588.6,51.4 L588.6,51.4 L589.08,59 L601.32,59 L601.32,2.04 L587.72,2.04 L587.72,25.72 C586.546667,23.3733333 584.946667,21.5333333 582.92,20.2 C580.893333,18.8666667 578.466667,18.2 575.64,18.2 C570.466667,18.2 566.413333,20.04 563.48,23.72 C560.546667,27.4 559.08,32.5466667 559.08,39.16 C559.08,45.6666667 560.533333,50.7333333 563.44,54.36 C566.346667,57.9866667 570.386667,59.8 575.56,59.8 Z M580.28,49.8 C577.88,49.8 576.026667,48.92 574.72,47.16 C573.413333,45.4 572.76,42.68 572.76,39 C572.76,35.32 573.413333,32.6 574.72,30.84 C576.026667,29.08 577.88,28.2 580.28,28.2 C582.466667,28.2 584.213333,29 585.52,30.6 C586.826667,32.2 587.56,34.4666667 587.72,37.4 L587.72,37.4 L587.72,40.6 C587.56,43.5866667 586.826667,45.8666667 585.52,47.44 C584.213333,49.0133333 582.466667,49.8 580.28,49.8 Z M627.06,59.8 C633.246667,59.8 637.966667,58.5866667 641.22,56.16 C644.473333,53.7333333 646.1,50.5733333 646.1,46.68 C646.1,43.2133333 644.806667,40.48 642.22,38.48 C639.633333,36.48 635.406667,34.9733333 629.54,33.96 C626.82,33.4266667 624.913333,32.88 623.82,32.32 C622.726667,31.76 622.18,31.08 622.18,30.28 C622.18,29.4266667 622.713333,28.7066667 623.78,28.12 C624.846667,27.5333333 626.34,27.24 628.26,27.24 C630.713333,27.24 632.82,27.6666667 634.58,28.52 C636.34,29.3733333 637.86,30.7333333 639.14,32.6 L639.14,32.6 L646.18,25.72 C644.366667,23.2133333 642.006667,21.3333333 639.1,20.08 C636.193333,18.8266667 632.446667,18.2 627.86,18.2 C623.7,18.2 620.166667,18.8266667 617.26,20.08 C614.353333,21.3333333 612.18,22.9733333 610.74,25 C609.3,27.0266667 608.58,29.1866667 608.58,31.48 C608.58,34.84 609.846667,37.5333333 612.38,39.56 C614.913333,41.5866667 619.166667,43.1866667 625.14,44.36 C627.806667,44.8933333 629.686667,45.44 630.78,46 C631.873333,46.56 632.42,47.2133333 632.42,47.96 C632.42,48.8133333 631.886667,49.4933333 630.82,50 C629.753333,50.5066667 628.286667,50.76 626.42,50.76 C620.82,50.76 616.873333,48.8666667 614.58,45.08 L614.58,45.08 L607.54,52.76 C611.38,57.4533333 617.886667,59.8 627.06,59.8 Z M29.12,137 L36.24,111.32 L43.44,137 L59.76,137 L71.84,97 L57.6,97 L50.8,127.16 L43.04,97 L29.6,97 L21.76,127.16 L15.04,97 L0.72,97 L12.88,137 L29.12,137 Z M83.82,92.36 C86.5933333,92.36 88.6066667,91.84 89.86,90.8 C91.1133333,89.76 91.74,88.12 91.74,85.88 C91.74,83.5866667 91.1133333,81.92 89.86,80.88 C88.6066667,79.84 86.5933333,79.32 83.82,79.32 C81.0466667,79.32 79.0333333,79.84 77.78,80.88 C76.5266667,81.92 75.9,83.5866667 75.9,85.88 C75.9,88.12 76.5266667,89.76 77.78,90.8 C79.0333333,91.84 81.0466667,92.36 83.82,92.36 Z M90.62,137 L90.62,97 L77.02,97 L77.02,137 L90.62,137 Z M117.56,137.8 C119.64,137.8 121.706667,137.52 123.76,136.96 C125.813333,136.4 127.506667,135.666667 128.84,134.76 L128.84,134.76 L127.48,126.36 C125.826667,127.533333 123.906667,128.12 121.72,128.12 C118.2,128.12 116.44,126.333333 116.44,122.76 L116.44,122.76 L116.44,106.68 L128.44,106.68 L128.44,97 L116.44,97 L116.44,84.28 L102.84,88.04 L102.84,97 L95.96,97 L95.96,106.68 L102.84,106.68 L102.84,125 C102.893333,129.48 104.173333,132.733333 106.68,134.76 C109.186667,136.786667 112.813333,137.8 117.56,137.8 Z M148.66,137 L148.66,115.96 C148.66,112.76 149.326667,110.386667 150.66,108.84 C151.993333,107.293333 153.726667,106.52 155.86,106.52 C159.646667,106.52 161.54,109.053333 161.54,114.12 L161.54,114.12 L161.54,137 L175.14,137 L175.14,110.36 C175.14,105.826667 173.886667,102.333333 171.38,99.88 C168.873333,97.4266667 165.513333,96.2 161.3,96.2 C158.366667,96.2 155.82,96.88 153.66,98.24 C151.5,99.6 149.833333,101.613333 148.66,104.28 L148.66,104.28 L148.66,80.04 L135.06,80.04 L135.06,137 L148.66,137 Z M230.46,137 L244.86,97 L230.78,97 L222.38,128.36 L214.14,97 L199.82,97 L214.22,137 L230.46,137 Z M255.96,92.36 C258.733333,92.36 260.746667,91.84 262,90.8 C263.253333,89.76 263.88,88.12 263.88,85.88 C263.88,83.5866667 263.253333,81.92 262,80.88 C260.746667,79.84 258.733333,79.32 255.96,79.32 C253.186667,79.32 251.173333,79.84 249.92,80.88 C248.666667,81.92 248.04,83.5866667 248.04,85.88 C248.04,88.12 248.666667,89.76 249.92,90.8 C251.173333,91.84 253.186667,92.36 255.96,92.36 Z M262.76,137 L262.76,97 L249.16,97 L249.16,137 L262.76,137 Z M288.5,137.8 C294.686667,137.8 299.406667,136.586667 302.66,134.16 C305.913333,131.733333 307.54,128.573333 307.54,124.68 C307.54,121.213333 306.246667,118.48 303.66,116.48 C301.073333,114.48 296.846667,112.973333 290.98,111.96 C288.26,111.426667 286.353333,110.88 285.26,110.32 C284.166667,109.76 283.62,109.08 283.62,108.28 C283.62,107.426667 284.153333,106.706667 285.22,106.12 C286.286667,105.533333 287.78,105.24 289.7,105.24 C292.153333,105.24 294.26,105.666667 296.02,106.52 C297.78,107.373333 299.3,108.733333 300.58,110.6 L300.58,110.6 L307.62,103.72 C305.806667,101.213333 303.446667,99.3333333 300.54,98.08 C297.633333,96.8266667 293.886667,96.2 289.3,96.2 C285.14,96.2 281.606667,96.8266667 278.7,98.08 C275.793333,99.3333333 273.62,100.973333 272.18,103 C270.74,105.026667 270.02,107.186667 270.02,109.48 C270.02,112.84 271.286667,115.533333 273.82,117.56 C276.353333,119.586667 280.606667,121.186667 286.58,122.36 C289.246667,122.893333 291.126667,123.44 292.22,124 C293.313333,124.56 293.86,125.213333 293.86,125.96 C293.86,126.813333 293.326667,127.493333 292.26,128 C291.193333,128.506667 289.726667,128.76 287.86,128.76 C282.26,128.76 278.313333,126.866667 276.02,123.08 L276.02,123.08 L268.98,130.76 C272.82,135.453333 279.326667,137.8 288.5,137.8 Z M327.52,137.8 C334.24,137.8 338.853333,135.053333 341.36,129.56 L341.36,129.56 L341.76,137 L353.92,137 L353.92,97 L340.32,97 L340.32,118.2 C340.32,121.293333 339.653333,123.6 338.32,125.12 C336.986667,126.64 335.2,127.4 332.96,127.4 C331.093333,127.4 329.706667,126.866667 328.8,125.8 C327.893333,124.733333 327.44,122.893333 327.44,120.28 L327.44,120.28 L327.44,97 L313.84,97 L313.84,123.72 C313.84,128.573333 315.053333,132.133333 317.48,134.4 C319.906667,136.666667 323.253333,137.8 327.52,137.8 Z M397.82,137.8 C399.9,137.8 401.713333,137.373333 403.26,136.52 L403.26,136.52 L404.3,128.92 C403.66,129.133333 402.833333,129.24 401.82,129.24 C399.9,129.24 398.94,128.2 398.94,126.12 L398.94,126.12 L398.94,111.56 C398.94,106.44 397.313333,102.6 394.06,100.04 C390.806667,97.48 386.06,96.2 379.82,96.2 C374.486667,96.2 370.246667,97.28 367.1,99.44 C363.953333,101.6 362.033333,104.626667 361.34,108.52 L361.34,108.52 L372.38,111.72 C372.753333,109.533333 373.58,107.96 374.86,107 C376.14,106.04 377.793333,105.56 379.82,105.56 C381.58,105.56 382.966667,106.093333 383.98,107.16 C384.993333,108.226667 385.5,109.666667 385.5,111.48 L385.5,111.48 L385.5,112.92 L376.46,114.68 C370.913333,115.8 366.926667,117.413333 364.5,119.52 C362.073333,121.626667 360.86,124.386667 360.86,127.8 C360.86,131.053333 361.926667,133.533333 364.06,135.24 C366.193333,136.946667 369.26,137.8 373.26,137.8 C380.353333,137.8 385.1,135.746667 387.5,131.64 C388.62,135.746667 392.06,137.8 397.82,137.8 Z M378.22,129 C376.993333,129 376.033333,128.706667 375.34,128.12 C374.646667,127.533333 374.3,126.68 374.3,125.56 C374.3,124.44 374.66,123.573333 375.38,122.96 C376.1,122.346667 377.313333,121.826667 379.02,121.4 L379.02,121.4 L385.5,119.88 L385.5,123.32 C385.5,125.026667 384.753333,126.4 383.26,127.44 C381.766667,128.48 380.086667,129 378.22,129 Z M421.16,137.8 C422.653333,137.8 424.173333,137.613333 425.72,137.24 C427.266667,136.866667 428.52,136.386667 429.48,135.8 L429.48,135.8 L430.36,127.4 C428.92,127.88 427.56,128.12 426.28,128.12 C424.893333,128.12 423.933333,127.746667 423.4,127 C422.866667,126.253333 422.6,124.973333 422.6,123.16 L422.6,123.16 L422.6,80.04 L409,80.04 L409,125.16 C409,129.586667 409.96,132.8 411.88,134.8 C413.8,136.8 416.893333,137.8 421.16,137.8 Z M475.76,137.8 C480.453333,137.8 484.413333,136.906667 487.64,135.12 C490.866667,133.333333 493.04,130.733333 494.16,127.32 L494.16,127.32 L483.12,123.8 C482.693333,125.24 481.853333,126.333333 480.6,127.08 C479.346667,127.826667 477.733333,128.2 475.76,128.2 C473.413333,128.2 471.533333,127.613333 470.12,126.44 C468.706667,125.266667 467.786667,123.426667 467.36,120.92 L467.36,120.92 L494.64,120.92 C494.906667,119.746667 495.04,118.253333 495.04,116.44 C495.04,110.04 493.32,105.066667 489.88,101.52 C486.44,97.9733333 481.493333,96.2 475.04,96.2 C468.373333,96.2 463.226667,98.0133333 459.6,101.64 C455.973333,105.266667 454.16,110.386667 454.16,117 C454.16,123.613333 456.013333,128.733333 459.72,132.36 C463.426667,135.986667 468.773333,137.8 475.76,137.8 Z M482.32,113.56 L467.28,113.56 C468.08,108.333333 470.64,105.72 474.96,105.72 C479.226667,105.72 481.68,108.333333 482.32,113.56 L482.32,113.56 Z M518.3,137 L518.3,106.68 L529.66,106.68 L529.66,97 L517.5,97 L517.5,94.2 C517.5,90.36 519.713333,88.44 524.14,88.44 C526.006667,88.44 527.526667,88.8666667 528.7,89.72 L528.7,89.72 L530.06,81.24 C528.086667,79.6933333 525.02,78.92 520.86,78.92 C516.06,78.92 512.166667,80.12 509.18,82.52 C506.193333,84.92 504.7,88.52 504.7,93.32 L504.7,93.32 L504.7,97 L498.3,97 L498.3,106.68 L504.7,106.68 L504.7,137 L518.3,137 Z M547.72,137 L547.72,106.68 L559.08,106.68 L559.08,97 L546.92,97 L546.92,94.2 C546.92,90.36 549.133333,88.44 553.56,88.44 C555.426667,88.44 556.946667,88.8666667 558.12,89.72 L558.12,89.72 L559.48,81.24 C557.506667,79.6933333 554.44,78.92 550.28,78.92 C545.48,78.92 541.586667,80.12 538.6,82.52 C535.613333,84.92 534.12,88.52 534.12,93.32 L534.12,93.32 L534.12,97 L527.72,97 L527.72,106.68 L534.12,106.68 L534.12,137 L547.72,137 Z M583.3,137.8 C587.993333,137.8 591.953333,136.906667 595.18,135.12 C598.406667,133.333333 600.58,130.733333 601.7,127.32 L601.7,127.32 L590.66,123.8 C590.233333,125.24 589.393333,126.333333 588.14,127.08 C586.886667,127.826667 585.273333,128.2 583.3,128.2 C580.953333,128.2 579.073333,127.613333 577.66,126.44 C576.246667,125.266667 575.326667,123.426667 574.9,120.92 L574.9,120.92 L602.18,120.92 C602.446667,119.746667 602.58,118.253333 602.58,116.44 C602.58,110.04 600.86,105.066667 597.42,101.52 C593.98,97.9733333 589.033333,96.2 582.58,96.2 C575.913333,96.2 570.766667,98.0133333 567.14,101.64 C563.513333,105.266667 561.7,110.386667 561.7,117 C561.7,123.613333 563.553333,128.733333 567.26,132.36 C570.966667,135.986667 576.313333,137.8 583.3,137.8 Z M589.86,113.56 L574.82,113.56 C575.62,108.333333 578.18,105.72 582.5,105.72 C586.766667,105.72 589.22,108.333333 589.86,113.56 L589.86,113.56 Z M629.36,137.8 C634.746667,137.8 639.08,136.666667 642.36,134.4 C645.64,132.133333 647.573333,129.186667 648.16,125.56 L648.16,125.56 L635.92,121.64 C635.28,125.96 633.066667,128.12 629.28,128.12 C624,128.12 621.36,124.466667 621.36,117.16 C621.36,109.64 624,105.88 629.28,105.88 C632.853333,105.88 634.906667,108.173333 635.44,112.76 L635.44,112.76 L648.08,108.6 C647.333333,104.92 645.44,101.933333 642.4,99.64 C639.36,97.3466667 634.826667,96.2 628.8,96.2 C622.186667,96.2 617.026667,98.0266667 613.32,101.68 C609.613333,105.333333 607.76,110.44 607.76,117 C607.76,123.613333 609.626667,128.733333 613.36,132.36 C617.093333,135.986667 622.426667,137.8 629.36,137.8 Z M672.62,137.8 C674.7,137.8 676.766667,137.52 678.82,136.96 C680.873333,136.4 682.566667,135.666667 683.9,134.76 L683.9,134.76 L682.54,126.36 C680.886667,127.533333 678.966667,128.12 676.78,128.12 C673.26,128.12 671.5,126.333333 671.5,122.76 L671.5,122.76 L671.5,106.68 L683.5,106.68 L683.5,97 L671.5,97 L671.5,84.28 L657.9,88.04 L657.9,97 L651.02,97 L651.02,106.68 L657.9,106.68 L657.9,125 C657.953333,129.48 659.233333,132.733333 661.74,134.76 C664.246667,136.786667 667.873333,137.8 672.62,137.8 Z M705.72,137.8 C711.906667,137.8 716.626667,136.586667 719.88,134.16 C723.133333,131.733333 724.76,128.573333 724.76,124.68 C724.76,121.213333 723.466667,118.48 720.88,116.48 C718.293333,114.48 714.066667,112.973333 708.2,111.96 C705.48,111.426667 703.573333,110.88 702.48,110.32 C701.386667,109.76 700.84,109.08 700.84,108.28 C700.84,107.426667 701.373333,106.706667 702.44,106.12 C703.506667,105.533333 705,105.24 706.92,105.24 C709.373333,105.24 711.48,105.666667 713.24,106.52 C715,107.373333 716.52,108.733333 717.8,110.6 L717.8,110.6 L724.84,103.72 C723.026667,101.213333 720.666667,99.3333333 717.76,98.08 C714.853333,96.8266667 711.106667,96.2 706.52,96.2 C702.36,96.2 698.826667,96.8266667 695.92,98.08 C693.013333,99.3333333 690.84,100.973333 689.4,103 C687.96,105.026667 687.24,107.186667 687.24,109.48 C687.24,112.84 688.506667,115.533333 691.04,117.56 C693.573333,119.586667 697.826667,121.186667 703.8,122.36 C706.466667,122.893333 708.346667,123.44 709.44,124 C710.533333,124.56 711.08,125.213333 711.08,125.96 C711.08,126.813333 710.546667,127.493333 709.48,128 C708.413333,128.506667 706.946667,128.76 705.08,128.76 C699.48,128.76 695.533333,126.866667 693.24,123.08 L693.24,123.08 L686.2,130.76 C690.04,135.453333 696.546667,137.8 705.72,137.8 Z M744.02,119.8 L745.54,101.24 L745.54,84.2 L731.38,84.2 L731.38,101.24 L732.9,119.8 L744.02,119.8 Z M738.42,137.64 C740.82,137.64 742.713333,137.053333 744.1,135.88 C745.486667,134.706667 746.18,133.08 746.18,131 C746.18,128.866667 745.486667,127.213333 744.1,126.04 C742.713333,124.866667 740.82,124.28 738.42,124.28 C736.02,124.28 734.14,124.866667 732.78,126.04 C731.42,127.213333 730.74,128.866667 730.74,131 C730.74,133.08 731.42,134.706667 732.78,135.88 C734.14,137.053333 736.02,137.64 738.42,137.64 Z" id="HeartfelteCardswithvisualeffects!" fill="#2B292D" fill-rule="nonzero"></path>
    </g>
</svg>