<?xml version="1.0" encoding="UTF-8"?>
<svg width="22px" height="24px" viewBox="0 0 22 24" version="1.1" xmlns="http://www.w3.org/2000/svg" xmlns:xlink="http://www.w3.org/1999/xlink">
    <!-- Generator: Sketch 61 (89581) - https://sketch.com -->
    <title>Shape</title>
    <desc>Created with Sketch.</desc>
    <g id="Page-1" stroke="none" stroke-width="1" fill="none" fill-rule="evenodd">
        <path d="M2.305,3.956 C1.846,3.956 1.422,4.167 1.202,4.508 C0.839,5.069 0.984,5.823 1.554,6.34 C1.937,6.686 2.442,6.886 2.939,6.886 C3.52,6.886 4.032,6.618 4.383,6.131 L7.591,1.758 L7.089,1.392 L4.161,5.358 L3.761,4.801 C3.371,4.255 2.853,3.956 2.305,3.956 M2.939,7.884 C2.196,7.884 1.447,7.591 0.883,7.08 C0.305,6.555 0,5.869 0,5.189 C0,3.569 1.426,2.957 2.305,2.957 C2.98,2.957 3.613,3.222 4.134,3.713 L6.876,0 L8.988,1.541 L5.191,6.718 C4.649,7.469 3.849,7.884 2.939,7.884 M18.325,0.045 L17.125,2.26 L14.649,2.715 L16.384,4.54 L16.052,7.036 L18.325,5.95 L20.596,7.036 L20.265,4.54 L22,2.715 L19.524,2.26 L18.325,0.045 Z M18.325,2.143 L18.873,3.156 L20.005,3.364 L19.212,4.198 L19.364,5.34 L18.325,4.844 L17.286,5.34 L17.438,4.198 L16.644,3.364 L17.776,3.156 L18.325,2.143 M11.013,6.037 C8.533,6.037 6.519,8.051 6.519,10.531 C6.519,13.013 8.533,15.025 11.013,15.025 C13.494,15.025 15.508,13.013 15.508,10.531 C15.508,8.051 13.494,6.037 11.013,6.037 M11.013,7.036 C12.941,7.036 14.509,8.605 14.509,10.531 C14.509,12.458 12.941,14.026 11.013,14.026 C9.086,14.026 7.518,12.458 7.518,10.531 C7.518,8.605 9.086,7.036 11.013,7.036 M6.03,23.001 L16.004,23.001 L16.004,20.223 C16.004,18.967 16.208,18.437 16.665,17.729 L17.689,16.149 C18.837,14.385 19.922,12.719 20.481,11.658 C20.559,11.51 20.511,11.33 20.369,11.24 C20.201,11.131 19.966,11.164 19.833,11.31 C19.162,12.044 17.803,13.474 15.792,15.561 L15.423,15.957 C14.472,16.997 13.893,17.497 11.136,17.497 L11.013,17.497 C8.154,17.483 7.571,16.982 6.622,15.943 L6.266,15.561 C4.267,13.487 2.907,12.057 2.224,11.31 C2.091,11.164 1.856,11.133 1.689,11.24 C1.547,11.331 1.5,11.511 1.577,11.658 C2.162,12.77 3.405,14.838 5.373,17.981 C5.852,18.747 6.03,19.421 6.03,20.47 L6.03,23.001 L6.03,23.001 Z M17.003,24 L5.031,24 L5.031,20.47 C5.031,19.619 4.899,19.107 4.527,18.512 C2.517,15.304 1.299,13.273 0.694,12.124 C0.373,11.513 0.568,10.772 1.149,10.399 C1.714,10.038 2.51,10.141 2.961,10.635 C3.629,11.366 5.02,12.83 6.985,14.868 L7.359,15.27 C8.145,16.13 8.47,16.486 11.018,16.498 L11.136,16.498 C13.575,16.498 13.9,16.143 14.686,15.283 L15.073,14.868 C17.078,12.788 18.431,11.364 19.097,10.636 C19.549,10.141 20.346,10.038 20.908,10.399 C21.49,10.772 21.685,11.513 21.365,12.124 C20.783,13.225 19.688,14.91 18.526,16.694 L17.504,18.27 C17.156,18.811 17.003,19.159 17.003,20.223 L17.003,24 L17.003,24 Z" id="Shape" fill="#000000"></path>
    </g>
</svg>