<?xml version="1.0" encoding="UTF-8"?>
<svg width="21px" height="24px" viewBox="0 0 21 24" version="1.1" xmlns="http://www.w3.org/2000/svg" xmlns:xlink="http://www.w3.org/1999/xlink">
    <!-- Generator: Sketch 61 (89581) - https://sketch.com -->
    <title>Group 4</title>
    <desc>Created with Sketch.</desc>
    <g id="Page-1" stroke="none" stroke-width="1" fill="none" fill-rule="evenodd">
        <g id="Group-4" fill="#000000">
            <path d="M5.2173913,24 L-6.57252031e-14,24 L-6.57252031e-14,14.6086957 L5.2173913,14.6086957 L5.2173913,16.4191304 C5.88313043,16.2125217 6.59686957,15.9026087 7.05913043,15.7001739 C7.72904348,15.408 8.37286957,15.2650435 9.02817391,15.2650435 C10.2949565,15.2650435 11.3290435,15.7857391 13.5182609,16.5224348 C14.186087,16.7457391 14.6410435,17.2695652 14.7443478,17.8852174 C15.9172174,16.9846957 17.7913043,15.530087 17.8090435,15.5165217 C18.1815652,15.2201739 18.6156522,15.0636522 19.0612174,15.0636522 C20.0546087,15.0636522 20.8883478,15.8598261 20.8883478,16.845913 C20.8883478,17.3572174 20.6598261,17.8653913 20.234087,18.2608696 C18.7961739,19.5965217 17.6827826,20.5909565 16.6998261,21.4685217 C16.1154783,21.9913043 15.5874783,22.461913 15.0845217,22.922087 C14.3029565,23.6389565 13.5005217,23.9718261 12.5582609,23.9718261 C12.1356522,23.9718261 11.690087,23.904 11.1933913,23.7631304 C8.29982609,22.946087 6.51443478,22.682087 5.2173913,22.610087 L5.2173913,24 L5.2173913,24 Z M4.17391304,15.6521739 L1.04347826,15.6521739 L1.04347826,22.9565217 L4.17391304,22.9565217 L4.17391304,15.6521739 Z M5.2173913,21.5624348 C7.40034783,21.6855652 9.81391304,22.2886957 11.4772174,22.7593043 C12.3297391,23.0003478 13.3147826,23.1286957 14.3801739,22.1530435 C15.7147826,20.930087 17.2205217,19.6351304 19.5234783,17.496 C20.3833043,16.6977391 19.3377391,15.6354783 18.4570435,16.3346087 C18.4570435,16.3346087 15.3673043,18.7335652 14.6076522,19.3012174 C14.2121739,19.5986087 13.8824348,19.8427826 13.4097391,19.8427826 C13.298087,19.8427826 13.1770435,19.8292174 13.0455652,19.7989565 C12.362087,19.6413913 11.0806957,19.3554783 10.1707826,19.0674783 C9.57078261,18.8765217 9.78365217,18.0313043 10.4504348,18.1721739 C10.9168696,18.2692174 12.1137391,18.5373913 12.7471304,18.7147826 C13.8083478,19.008 14.0786087,17.810087 13.1874783,17.5126957 C12.6010435,17.3144348 12.6271304,17.306087 11.2163478,16.8187826 C9.85878261,16.3481739 8.90608696,16.0330435 7.47547826,16.656 C6.80869565,16.946087 5.98121739,17.2987826 5.2173913,17.5053913 L5.2173913,21.5624348 L5.2173913,21.5624348 Z" id="Shape"></path>
            <path d="M11.4782609,12.5217391 C8.27383399,9.27680028 5.2173913,6.48939839 5.2173913,4.08454661 C5.2173913,1.86364695 6.96360474,1.04347826 8.22317787,1.04347826 C8.96992885,1.04347826 10.5858024,1.33698149 11.4782609,3.65454388 C12.3832411,1.32995147 14.0190356,1.04933661 14.7373281,1.04933661 C16.1830198,1.04933661 17.7391304,1.99897479 17.7391304,4.08454661 C17.7391304,6.46830834 14.8158735,9.1373716 11.4782609,12.5217391 M14.9636522,0.0061660079 C13.6226957,0.0061660079 12.2573913,0.648664032 11.4782609,2.00271937 C10.696087,0.642498024 9.33443478,-1.58983937e-13 7.99713043,-1.58983937e-13 C6.05965217,-1.58983937e-13 4.17391304,1.34850593 4.17391304,3.81737549 C4.17391304,6.69135178 7.56495652,9.63130435 11.4782609,13.5652174 C15.3921739,9.63130435 18.7826087,6.69135178 18.7826087,3.81737549 C18.7826087,1.34418972 16.8986957,0.0061660079 14.9636522,0.0061660079" id="Shape"></path>
        </g>
    </g>
</svg>