<?xml version="1.0" encoding="UTF-8"?>
<svg width="24px" height="22px" viewBox="0 0 24 22" version="1.1" xmlns="http://www.w3.org/2000/svg" xmlns:xlink="http://www.w3.org/1999/xlink">
    <!-- Generator: Sketch 61 (89581) - https://sketch.com -->
    <title>Shape</title>
    <desc>Created with Sketch.</desc>
    <g id="Page-1" stroke="none" stroke-width="1" fill="none" fill-rule="evenodd">
        <path d="M12,0 C10.438,0 9.167,1.271 9.167,2.833 C9.167,3.886 9.732,4.592 10.27,5.096 C9.781,7.91 8.421,8.25 7.417,8.25 C6.277,8.25 5.597,7.56 4.944,6.581 C5.333,6.059 5.676,5.451 5.676,4.64 C5.676,3.092 4.401,1.833 2.833,1.833 C1.271,1.833 0,3.104 0,4.667 C0,5.906 0.734,6.903 2,7.44 L2,22 L22,22 L22,7.432 C23.721,6.686 24,5.413 24,4.667 C24,3.104 22.729,1.833 21.167,1.833 C19.6,1.833 18.324,3.092 18.324,4.64 C18.324,5.418 18.652,6.051 19.045,6.56 C18.338,7.738 17.58,8.25 16.583,8.25 C15.993,8.25 14.255,8.25 13.733,5.093 C14.372,4.486 15.074,3.58 14.762,2.208 C14.465,0.908 13.329,0 12,0 Z M21,21 L21,18 L3,18 L3,21 L21,21 Z M21,17 L21,6.727 C22.098,6.417 23,5.802 23,4.667 C23,3.655 22.179,2.833 21.167,2.833 C20.163,2.833 19.324,3.657 19.324,4.64 C19.324,5.351 19.757,5.913 20.258,6.427 C19.46,8.012 18.378,9.25 16.583,9.25 C14.113,9.25 12.97,7.362 12.67,4.702 C13.44,4.038 14.015,3.43 13.787,2.431 C13.607,1.646 12.905,1 12,1 C10.988,1 10.167,1.821 10.167,2.833 C10.167,3.657 10.708,4.169 11.338,4.703 C11.011,7.357 9.908,9.25 7.417,9.25 C5.47,9.25 4.509,7.807 3.72,6.517 C4.203,5.917 4.676,5.387 4.676,4.64 C4.676,3.657 3.837,2.833 2.833,2.833 C1.821,2.833 1,3.655 1,4.667 C1,5.782 1.909,6.452 3,6.719 L3,17 L21,17 L21,17 Z" id="Shape" fill="#000000"></path>
    </g>
</svg>