<?xml version="1.0" encoding="UTF-8"?>
<svg width="24px" height="24px" viewBox="0 0 24 24" version="1.1" xmlns="http://www.w3.org/2000/svg" xmlns:xlink="http://www.w3.org/1999/xlink">
    <!-- Generator: Sketch 61.2 (89653) - https://sketch.com -->
    <title>Group</title>
    <desc>Created with Sketch.</desc>
    <defs>
        <linearGradient x1="50%" y1="100%" x2="50%" y2="2.83467061%" id="linearGradient-1">
            <stop stop-color="#D2D2D2" offset="0%"></stop>
            <stop stop-color="#E5E5E5" offset="100%"></stop>
        </linearGradient>
    </defs>
    <g id="Symbols" stroke="none" stroke-width="1" fill="none" fill-rule="evenodd">
        <g id="TitleBar" transform="translate(-193.000000, -13.000000)">
            <rect id="Rectangle" fill="url(#linearGradient-1)" x="0" y="0" width="1280" height="63"></rect>
            <g id="Group" transform="translate(193.000000, 13.000000)" fill="#909090" fill-rule="nonzero">
                <path d="M19,2 C20.654,2 22,3.346 22,5 L22,19 C22,20.654 20.654,22 19,22 L5,22 C3.346,22 2,20.654 2,19 L2,5 C2,3.346 3.346,2 5,2 L19,2 Z M24,5 C24,2.239 21.762,0 19,0 L5,0 C2.238,0 0,2.239 0,5 L0,19 C0,21.761 2.238,24 5,24 L19,24 C21.762,24 24,21.761 24,19 L24,5 Z M11,17 L9,17 L9,20 L7,20 L7,17 L5,17 L5,14 L11,14 L11,17 Z M9,4 L7,4 L7,12 L9,12 L9,4 Z M19,9 L13,9 L13,12 L15,12 L15,20 L17,20 L17,12 L19,12 L19,9 Z M17,4 L15,4 L15,7 L17,7 L17,4 Z" id="Shape"></path>
            </g>
        </g>
    </g>
</svg>